{
  "asset": {
    "generator": "Khronos glTF Blender I/O v3.4.50",
    "version": "2.0"
  },
  "scene": 0,
  "scenes": [
    {
      "name": "Scene",
      "nodes": [
        0
      ]
    }
  ],
  "nodes": [
    {
      "mesh": 0,
      "name": "mousetrap"
    }
  ],
  "materials": [
    {
      "doubleSided": true,
      "name": "mousetrap",
      "normalTexture": {
        "index": 0
      },
      "pbrMetallicRoughness": {
        "baseColorTexture": {
          "index": 1
        },
        "metallicRoughnessTexture": {
          "index": 2
        }
      }
    }
  ],
  "meshes": [
    {
      "name": "Cube.001",
      "primitives": [
        {
          "attributes": {
            "POSITION": 0,
            "TEXCOORD_0": 1,
            "NORMAL": 2
          },
          "indices": 3,
          "material": 0
        }
      ]
    }
  ],
  "textures": [
    {
      "sampler": 0,
      "source": 0
    },
    {
      "sampler": 0,
      "source": 1
    },
    {
      "sampler": 0,
      "source": 2
    }
  ],
  "images": [
    {
      "mimeType": "image/jpeg",
      "name": "mousetrap_nor_gl",
      "uri": "textures/mousetrap_nor_gl_1k.jpg"
    },
    {
      "mimeType": "image/jpeg",
      "name": "mousetrap_diff",
      "uri": "textures/mousetrap_diff_1k.jpg"
    },
    {
      "mimeType": "image/jpeg",
      "name": "mousetrap_metal-mousetrap_rough",
      "uri": "textures/mousetrap_arm_1k.jpg"
    }
  ],
  "accessors": [
    {
      "bufferView": 0,
      "componentType": 5126,
      "count": 3877,
      "max": [
        0.027493778616189957,
        0.017934173345565796,
        0.05022178217768669
      ],
      "min": [
        -0.027493789792060852,
        -7.949335412149594e-9,
        -0.05022178217768669
      ],
      "type": "VEC3"
    },
    {
      "bufferView": 1,
      "componentType": 5126,
      "count": 3877,
      "type": "VEC2"
    },
    {
      "bufferView": 2,
      "componentType": 5126,
      "count": 3877,
      "type": "VEC3"
    },
    {
      "bufferView": 3,
      "componentType": 5123,
      "count": 15408,
      "type": "SCALAR"
    }
  ],
  "bufferViews": [
    {
      "buffer": 0,
      "byteLength": 46524,
      "byteOffset": 0,
      "target": 34962
    },
    {
      "buffer": 0,
      "byteLength": 31016,
      "byteOffset": 46524,
      "target": 34962
    },
    {
      "buffer": 0,
      "byteLength": 46524,
      "byteOffset": 77540,
      "target": 34962
    },
    {
      "buffer": 0,
      "byteLength": 30816,
      "byteOffset": 124064,
      "target": 34963
    }
  ],
  "samplers": [
    {
      "magFilter": 9729,
      "minFilter": 9987
    }
  ],
  "buffers": [
    {
      "byteLength": 154880,
      "uri": "mousetrap.bin"
    }
  ]
}