{
  "asset": {
    "generator": "Khronos glTF Blender I/O v3.3.32",
    "version": "2.0"
  },
  "extensionsUsed": [
    "KHR_materials_specular",
    "KHR_materials_ior"
  ],
  "scene": 0,
  "scenes": [
    {
      "name": "Scene",
      "nodes": [
        0
      ]
    }
  ],
  "nodes": [
    {
      "mesh": 0,
      "name": "all_purpose_cleaner"
    }
  ],
  "materials": [
    {
      "doubleSided": true,
      "extensions": {
        "KHR_materials_specular": {
          "specularColorFactor": [
            1.228794359092309,
            1.228794359092309,
            1.228794359092309
          ]
        },
        "KHR_materials_ior": {
          "ior": 1.4500000476837158
        }
      },
      "name": "all_purpose_cleaner",
      "normalTexture": {
        "index": 0
      },
      "pbrMetallicRoughness": {
        "baseColorTexture": {
          "index": 1
        },
        "metallicFactor": 0,
        "metallicRoughnessTexture": {
          "index": 2
        }
      }
    }
  ],
  "meshes": [
    {
      "name": "Cylinder",
      "primitives": [
        {
          "attributes": {
            "POSITION": 0,
            "NORMAL": 1,
            "TEXCOORD_0": 2
          },
          "indices": 3,
          "material": 0
        }
      ]
    }
  ],
  "textures": [
    {
      "sampler": 0,
      "source": 0
    },
    {
      "sampler": 0,
      "source": 1
    },
    {
      "sampler": 0,
      "source": 2
    }
  ],
  "images": [
    {
      "mimeType": "image/jpeg",
      "name": "all_purpose_cleaner_nor_gl",
      "uri": "textures/all_purpose_cleaner_nor_gl_1k.jpg"
    },
    {
      "mimeType": "image/jpeg",
      "name": "all_purpose_cleaner_diff",
      "uri": "textures/all_purpose_cleaner_diff_1k.jpg"
    },
    {
      "mimeType": "image/jpeg",
      "name": "all_purpose_cleaner_rough",
      "uri": "textures/all_purpose_cleaner_arm_1k.jpg"
    }
  ],
  "accessors": [
    {
      "bufferView": 0,
      "componentType": 5126,
      "count": 2796,
      "max": [
        0.08125108480453491,
        0.31981679797172546,
        0.05870501697063446
      ],
      "min": [
        -0.075571708381176,
        0.0000850961878313683,
        -0.058705009520053864
      ],
      "type": "VEC3"
    },
    {
      "bufferView": 1,
      "componentType": 5126,
      "count": 2796,
      "type": "VEC3"
    },
    {
      "bufferView": 2,
      "componentType": 5126,
      "count": 2796,
      "type": "VEC2"
    },
    {
      "bufferView": 3,
      "componentType": 5123,
      "count": 13872,
      "type": "SCALAR"
    }
  ],
  "bufferViews": [
    {
      "buffer": 0,
      "byteLength": 33552,
      "byteOffset": 0,
      "target": 34962
    },
    {
      "buffer": 0,
      "byteLength": 33552,
      "byteOffset": 33552,
      "target": 34962
    },
    {
      "buffer": 0,
      "byteLength": 22368,
      "byteOffset": 67104,
      "target": 34962
    },
    {
      "buffer": 0,
      "byteLength": 27744,
      "byteOffset": 89472,
      "target": 34963
    }
  ],
  "samplers": [
    {
      "magFilter": 9729,
      "minFilter": 9987
    }
  ],
  "buffers": [
    {
      "byteLength": 117216,
      "uri": "all_purpose_cleaner.bin"
    }
  ]
}