# Blender 4.3.0
# www.blender.org
mtllib TV.mtl
o Cube
v 0.490473 -3.600000 6.200000
v 0.490473 3.600000 6.200000
v 0.490473 -3.600000 -6.200000
v 0.490473 3.600000 -6.200000
v -0.374561 -2.965077 4.013044
v -0.490473 -2.018635 2.236537
v -0.383656 -2.955747 3.985480
v -0.392694 -2.941164 3.948939
v -0.401620 -2.921417 3.903646
v -0.410380 -2.896629 3.849883
v -0.418919 -2.866952 3.787980
v -0.427184 -2.832570 3.718318
v -0.435125 -2.793694 3.641326
v -0.442692 -2.750564 3.557482
v -0.449840 -2.703446 3.467299
v -0.456523 -2.652631 3.371335
v -0.462701 -2.598431 3.270181
v -0.468336 -2.541181 3.164461
v -0.473392 -2.481234 3.054828
v -0.477839 -2.418959 2.941955
v -0.481650 -2.354741 2.826541
v -0.484800 -2.288975 2.709295
v -0.487270 -2.222067 2.590942
v -0.489046 -2.154429 2.472210
v -0.490115 -2.086479 2.353832
v -0.374561 2.965077 4.013044
v -0.490473 2.018635 2.236537
v -0.383656 2.955747 3.985480
v -0.392694 2.941164 3.948939
v -0.401620 2.921417 3.903646
v -0.410380 2.896629 3.849883
v -0.418919 2.866952 3.787980
v -0.427184 2.832570 3.718318
v -0.435125 2.793694 3.641326
v -0.442692 2.750564 3.557482
v -0.449840 2.703446 3.467299
v -0.456523 2.652631 3.371335
v -0.462701 2.598431 3.270181
v -0.468336 2.541181 3.164461
v -0.473392 2.481234 3.054828
v -0.477839 2.418959 2.941955
v -0.481650 2.354741 2.826541
v -0.484800 2.288975 2.709295
v -0.487270 2.222067 2.590942
v -0.489046 2.154429 2.472210
v -0.490115 2.086479 2.353832
v -0.490473 -2.018635 -2.236537
v -0.374561 -2.965077 -4.013044
v -0.490115 -2.086479 -2.353832
v -0.489046 -2.154429 -2.472210
v -0.487270 -2.222067 -2.590942
v -0.484800 -2.288975 -2.709295
v -0.481650 -2.354741 -2.826541
v -0.477839 -2.418959 -2.941955
v -0.473392 -2.481234 -3.054828
v -0.468336 -2.541181 -3.164461
v -0.462701 -2.598431 -3.270181
v -0.456523 -2.652631 -3.371335
v -0.449840 -2.703446 -3.467299
v -0.442692 -2.750564 -3.557482
v -0.435125 -2.793694 -3.641326
v -0.427184 -2.832570 -3.718318
v -0.418919 -2.866952 -3.787980
v -0.410380 -2.896629 -3.849883
v -0.401620 -2.921417 -3.903646
v -0.392694 -2.941164 -3.948939
v -0.383656 -2.955747 -3.985480
v -0.374561 2.965077 -4.013044
v -0.490473 2.018635 -2.236537
v -0.383656 2.955747 -3.985480
v -0.392694 2.941164 -3.948939
v -0.401620 2.921417 -3.903646
v -0.410380 2.896629 -3.849883
v -0.418919 2.866952 -3.787980
v -0.427184 2.832570 -3.718318
v -0.435125 2.793694 -3.641326
v -0.442692 2.750564 -3.557482
v -0.449840 2.703446 -3.467299
v -0.456523 2.652631 -3.371335
v -0.462701 2.598431 -3.270181
v -0.468336 2.541181 -3.164461
v -0.473392 2.481234 -3.054828
v -0.477839 2.418959 -2.941955
v -0.481650 2.354741 -2.826541
v -0.484800 2.288975 -2.709295
v -0.487270 2.222067 -2.590942
v -0.489046 2.154429 -2.472210
v -0.490115 2.086479 -2.353832
vn -0.9299 -0.0000 0.3678
vn 1.0000 -0.0000 -0.0000
vn -0.5917 0.8062 -0.0000
vn -1.0000 -0.0000 -0.0000
vn -0.9299 -0.0000 -0.3678
vn -0.7161 -0.6980 -0.0000
vn -0.8500 -0.5268 -0.0000
vn -0.9112 -0.4119 -0.0000
vn -0.9429 -0.3332 -0.0000
vn -0.9610 -0.2765 -0.0000
vn -0.9723 -0.2337 -0.0000
vn -0.9798 -0.2001 -0.0000
vn -0.9850 -0.1728 -0.0000
vn -0.9887 -0.1500 -0.0000
vn -0.9915 -0.1304 -0.0000
vn -0.9936 -0.1133 -0.0000
vn -0.9952 -0.0979 -0.0000
vn -0.9965 -0.0841 -0.0000
vn -0.9975 -0.0712 -0.0000
vn -0.9982 -0.0592 -0.0000
vn -0.9989 -0.0478 -0.0000
vn -0.9993 -0.0369 -0.0000
vn -0.9997 -0.0262 -0.0000
vn -0.9999 -0.0157 -0.0000
vn -1.0000 -0.0053 -0.0000
vn -0.9496 -0.0000 0.3133
vn -0.9707 -0.0000 0.2401
vn -0.9811 -0.0000 0.1934
vn -0.9870 -0.0000 0.1608
vn -0.9906 -0.0000 0.1366
vn -0.9930 -0.0000 0.1178
vn -0.9947 -0.0000 0.1026
vn -0.9960 -0.0000 0.0899
vn -0.9969 -0.0000 0.0790
vn -0.9976 -0.0000 0.0695
vn -0.9981 -0.0000 0.0610
vn -0.9986 -0.0000 0.0532
vn -0.9989 -0.0000 0.0461
vn -0.9992 -0.0000 0.0394
vn -0.9995 -0.0000 0.0330
vn -0.9996 -0.0000 0.0269
vn -0.9998 -0.0000 0.0209
vn -0.9999 -0.0000 0.0150
vn -1.0000 -0.0000 0.0090
vn -1.0000 -0.0000 0.0030
vn -0.7161 0.6980 -0.0000
vn -0.8500 0.5268 -0.0000
vn -0.9112 0.4119 -0.0000
vn -0.9429 0.3332 -0.0000
vn -0.9610 0.2765 -0.0000
vn -0.9723 0.2337 -0.0000
vn -0.9798 0.2001 -0.0000
vn -0.9850 0.1728 -0.0000
vn -0.9887 0.1500 -0.0000
vn -0.9915 0.1304 -0.0000
vn -0.9936 0.1133 -0.0000
vn -0.9952 0.0979 -0.0000
vn -0.9965 0.0841 -0.0000
vn -0.9975 0.0712 -0.0000
vn -0.9982 0.0592 -0.0000
vn -0.9989 0.0478 -0.0000
vn -0.9993 0.0369 -0.0000
vn -0.9997 0.0262 -0.0000
vn -0.9999 0.0157 -0.0000
vn -1.0000 0.0053 -0.0000
vn -0.9496 -0.0000 -0.3133
vn -0.9707 -0.0000 -0.2401
vn -0.9811 -0.0000 -0.1934
vn -0.9870 -0.0000 -0.1608
vn -0.9906 -0.0000 -0.1366
vn -0.9930 -0.0000 -0.1178
vn -0.9947 -0.0000 -0.1026
vn -0.9960 -0.0000 -0.0899
vn -0.9969 -0.0000 -0.0790
vn -0.9976 -0.0000 -0.0695
vn -0.9981 -0.0000 -0.0610
vn -0.9986 -0.0000 -0.0532
vn -0.9989 -0.0000 -0.0461
vn -0.9992 -0.0000 -0.0394
vn -0.9995 -0.0000 -0.0330
vn -0.9996 -0.0000 -0.0269
vn -0.9998 -0.0000 -0.0209
vn -0.9999 -0.0000 -0.0150
vn -1.0000 -0.0000 -0.0090
vn -1.0000 -0.0000 -0.0030
vn -0.5917 -0.8062 -0.0000
vt 0.375000 0.750000
vt 0.625000 0.750000
vt 0.625000 0.970459
vt 0.375000 0.970459
vt 0.375000 0.500000
vt 0.625000 0.500000
vt 0.845459 0.500000
vt 0.845459 0.750000
vt 0.412386 0.049848
vt 0.587614 0.049848
vt 0.587614 0.200152
vt 0.412386 0.200152
vt 0.375000 0.279541
vt 0.625000 0.279541
vt 0.154541 0.500000
vt 0.154541 0.750000
vt 0.152214 0.749875
vt 0.152214 0.500125
vt 0.149883 0.749499
vt 0.149883 0.500501
vt 0.147563 0.748871
vt 0.147563 0.501129
vt 0.145267 0.747989
vt 0.145267 0.502011
vt 0.143011 0.746853
vt 0.143011 0.503147
vt 0.140807 0.745457
vt 0.140807 0.504543
vt 0.138669 0.743792
vt 0.138669 0.506207
vt 0.136612 0.741844
vt 0.136612 0.508156
vt 0.134646 0.739585
vt 0.134646 0.510415
vt 0.125000 0.738284
vt 0.125000 0.511716
vt 0.375000 0.238284
vt 0.375000 0.011716
vt 0.387221 0.015115
vt 0.387221 0.234885
vt 0.389706 0.018667
vt 0.389706 0.231333
vt 0.392308 0.022351
vt 0.392308 0.227649
vt 0.395010 0.026144
vt 0.395011 0.223856
vt 0.397798 0.030022
vt 0.397798 0.219978
vt 0.400652 0.033962
vt 0.400652 0.216038
vt 0.403556 0.037939
vt 0.403556 0.212061
vt 0.406492 0.041928
vt 0.406492 0.208072
vt 0.409441 0.045906
vt 0.409441 0.204094
vt 0.624895 0.972795
vt 0.375105 0.972795
vt 0.624582 0.975151
vt 0.375418 0.975151
vt 0.624060 0.977514
vt 0.375940 0.977514
vt 0.623331 0.979869
vt 0.376669 0.979869
vt 0.622398 0.982202
vt 0.377602 0.982202
vt 0.621261 0.984497
vt 0.378739 0.984497
vt 0.619922 0.986742
vt 0.380078 0.986742
vt 0.618378 0.988921
vt 0.381622 0.988921
vt 0.616626 0.991022
vt 0.383374 0.991022
vt 0.615132 1.000000
vt 0.384869 1.000000
vt 0.384868 0.000000
vt 0.615131 0.000000
vt 0.612779 0.015115
vt 0.610294 0.018667
vt 0.607692 0.022351
vt 0.604990 0.026144
vt 0.602202 0.030022
vt 0.599348 0.033962
vt 0.596444 0.037939
vt 0.593508 0.041928
vt 0.590559 0.045906
vt 0.847786 0.500125
vt 0.847786 0.749875
vt 0.850117 0.500501
vt 0.850117 0.749499
vt 0.852437 0.501129
vt 0.852437 0.748871
vt 0.854733 0.502011
vt 0.854733 0.747990
vt 0.856989 0.503147
vt 0.856989 0.746853
vt 0.859193 0.504543
vt 0.859193 0.745457
vt 0.861331 0.506207
vt 0.861331 0.743793
vt 0.863388 0.508157
vt 0.863388 0.741844
vt 0.865354 0.510415
vt 0.865354 0.739585
vt 0.875000 0.511716
vt 0.875000 0.738284
vt 0.625000 0.011716
vt 0.625000 0.238284
vt 0.612779 0.234885
vt 0.610294 0.231333
vt 0.607692 0.227649
vt 0.604990 0.223856
vt 0.602202 0.219978
vt 0.599348 0.216038
vt 0.596444 0.212061
vt 0.593508 0.208072
vt 0.590559 0.204094
vt 0.375105 0.277205
vt 0.624896 0.277205
vt 0.375418 0.274849
vt 0.624582 0.274849
vt 0.375940 0.272486
vt 0.624060 0.272486
vt 0.376669 0.270131
vt 0.623331 0.270131
vt 0.377602 0.267798
vt 0.622398 0.267798
vt 0.378739 0.265503
vt 0.621261 0.265503
vt 0.380078 0.263258
vt 0.619922 0.263258
vt 0.381622 0.261079
vt 0.618378 0.261079
vt 0.383374 0.258978
vt 0.616626 0.258977
vt 0.384869 0.250000
vt 0.615131 0.250000
s 0
f 1/1/1 2/2/1 26/3/1 5/4/1
f 3/5/2 4/6/2 2/2/2 1/1/2
f 4/6/3 68/7/3 26/8/3 2/2/3
f 6/9/4 27/10/4 69/11/4 47/12/4
f 48/13/5 68/14/5 4/6/5 3/5/5
f 48/15/6 5/16/6 7/17/6 67/18/6
f 67/18/7 7/17/7 8/19/7 66/20/7
f 66/20/8 8/19/8 9/21/8 65/22/8
f 65/22/9 9/21/9 10/23/9 64/24/9
f 64/24/10 10/23/10 11/25/10 63/26/10
f 63/26/11 11/25/11 12/27/11 62/28/11
f 62/28/12 12/27/12 13/29/12 61/30/12
f 61/30/13 13/29/13 14/31/13 60/32/13
f 60/32/14 14/31/14 15/33/14 59/34/14
f 59/34/15 15/33/15 16/35/15 58/36/15
f 58/37/16 16/38/16 17/39/16 57/40/16
f 57/40/17 17/39/17 18/41/17 56/42/17
f 56/42/18 18/41/18 19/43/18 55/44/18
f 55/44/19 19/43/19 20/45/19 54/46/19
f 54/46/20 20/45/20 21/47/20 53/48/20
f 53/48/21 21/47/21 22/49/21 52/50/21
f 52/50/22 22/49/22 23/51/22 51/52/22
f 51/52/23 23/51/23 24/53/23 50/54/23
f 50/54/24 24/53/24 25/55/24 49/56/24
f 49/56/25 25/55/25 6/9/25 47/12/25
f 5/4/26 26/3/26 28/57/26 7/58/26
f 7/58/27 28/57/27 29/59/27 8/60/27
f 8/60/28 29/59/28 30/61/28 9/62/28
f 9/62/29 30/61/29 31/63/29 10/64/29
f 10/64/30 31/63/30 32/65/30 11/66/30
f 11/66/31 32/65/31 33/67/31 12/68/31
f 12/68/32 33/67/32 34/69/32 13/70/32
f 13/70/33 34/69/33 35/71/33 14/72/33
f 14/72/34 35/71/34 36/73/34 15/74/34
f 15/74/35 36/73/35 37/75/35 16/76/35
f 16/77/36 37/78/36 38/79/36 17/39/36
f 17/39/37 38/79/37 39/80/37 18/41/37
f 18/41/38 39/80/38 40/81/38 19/43/38
f 19/43/39 40/81/39 41/82/39 20/45/39
f 20/45/40 41/82/40 42/83/40 21/47/40
f 21/47/41 42/83/41 43/84/41 22/49/41
f 22/49/42 43/84/42 44/85/42 23/51/42
f 23/51/43 44/85/43 45/86/43 24/53/43
f 24/53/44 45/86/44 46/87/44 25/55/44
f 25/55/45 46/87/45 27/10/45 6/9/45
f 26/8/46 68/7/46 70/88/46 28/89/46
f 28/89/47 70/88/47 71/90/47 29/91/47
f 29/91/48 71/90/48 72/92/48 30/93/48
f 30/93/49 72/92/49 73/94/49 31/95/49
f 31/95/50 73/94/50 74/96/50 32/97/50
f 32/97/51 74/96/51 75/98/51 33/99/51
f 33/99/52 75/98/52 76/100/52 34/101/52
f 34/101/53 76/100/53 77/102/53 35/103/53
f 35/103/54 77/102/54 78/104/54 36/105/54
f 36/105/55 78/104/55 79/106/55 37/107/55
f 37/108/56 79/109/56 80/110/56 38/79/56
f 38/79/57 80/110/57 81/111/57 39/80/57
f 39/80/58 81/111/58 82/112/58 40/81/58
f 40/81/59 82/112/59 83/113/59 41/82/59
f 41/82/60 83/113/60 84/114/60 42/83/60
f 42/83/61 84/114/61 85/115/61 43/84/61
f 43/84/62 85/115/62 86/116/62 44/85/62
f 44/85/63 86/116/63 87/117/63 45/86/63
f 45/86/64 87/117/64 88/118/64 46/87/64
f 46/87/65 88/118/65 69/11/65 27/10/65
f 68/14/66 48/13/66 67/119/66 70/120/66
f 70/120/67 67/119/67 66/121/67 71/122/67
f 71/122/68 66/121/68 65/123/68 72/124/68
f 72/124/69 65/123/69 64/125/69 73/126/69
f 73/126/70 64/125/70 63/127/70 74/128/70
f 74/128/71 63/127/71 62/129/71 75/130/71
f 75/130/72 62/129/72 61/131/72 76/132/72
f 76/132/73 61/131/73 60/133/73 77/134/73
f 77/134/74 60/133/74 59/135/74 78/136/74
f 78/136/75 59/135/75 58/137/75 79/138/75
f 79/138/76 58/137/76 57/40/76 80/110/76
f 80/110/77 57/40/77 56/42/77 81/111/77
f 81/111/78 56/42/78 55/44/78 82/112/78
f 82/112/79 55/44/79 54/46/79 83/113/79
f 83/113/80 54/46/80 53/48/80 84/114/80
f 84/114/81 53/48/81 52/50/81 85/115/81
f 85/115/82 52/50/82 51/52/82 86/116/82
f 86/116/83 51/52/83 50/54/83 87/117/83
f 87/117/84 50/54/84 49/56/84 88/118/84
f 88/118/85 49/56/85 47/12/85 69/11/85
f 48/15/86 3/5/86 1/1/86 5/16/86
o Cube.001
v 0.498673 -3.329824 6.124386
v 0.498673 3.525794 6.124386
v 0.498673 -3.329824 -6.124386
v 0.498673 3.525794 -6.124386
v -0.366361 -2.725271 3.964102
v -0.482273 -1.824097 2.209261
v -0.375456 -2.716387 3.936873
v -0.384494 -2.702501 3.900778
v -0.393420 -2.683698 3.856038
v -0.402180 -2.660096 3.802930
v -0.410719 -2.631839 3.741782
v -0.418984 -2.599101 3.672969
v -0.426925 -2.562085 3.596917
v -0.434493 -2.521018 3.514095
v -0.441640 -2.476153 3.425012
v -0.448323 -2.427768 3.330218
v -0.454501 -2.376161 3.230298
v -0.460136 -2.321649 3.125868
v -0.465192 -2.264570 3.017571
v -0.469639 -2.205273 2.906076
v -0.473450 -2.144127 2.792068
v -0.476600 -2.081506 2.676253
v -0.479070 -2.017799 2.559343
v -0.480846 -1.953396 2.442059
v -0.481916 -1.888696 2.325125
v -0.366361 2.921240 3.964102
v -0.482273 2.020066 2.209261
v -0.375456 2.912356 3.936873
v -0.384494 2.898470 3.900778
v -0.393420 2.879668 3.856038
v -0.402180 2.856066 3.802931
v -0.410719 2.827808 3.741782
v -0.418984 2.795070 3.672969
v -0.426925 2.758054 3.596917
v -0.434493 2.716987 3.514095
v -0.441640 2.672123 3.425012
v -0.448323 2.623738 3.330218
v -0.454501 2.572130 3.230298
v -0.460136 2.517619 3.125868
v -0.465192 2.460539 3.017571
v -0.469639 2.401243 2.906076
v -0.473450 2.340096 2.792069
v -0.476600 2.277476 2.676253
v -0.479070 2.213768 2.559343
v -0.480846 2.149366 2.442059
v -0.481916 2.084666 2.325125
v -0.482273 -1.824097 -2.209261
v -0.366361 -2.725271 -3.964102
v -0.481916 -1.888696 -2.325125
v -0.480846 -1.953396 -2.442059
v -0.479070 -2.017799 -2.559343
v -0.476600 -2.081506 -2.676253
v -0.473450 -2.144127 -2.792069
v -0.469639 -2.205273 -2.906076
v -0.465192 -2.264570 -3.017571
v -0.460136 -2.321649 -3.125868
v -0.454501 -2.376161 -3.230298
v -0.448323 -2.427768 -3.330218
v -0.441640 -2.476153 -3.425012
v -0.434493 -2.521018 -3.514095
v -0.426925 -2.562085 -3.596917
v -0.418984 -2.599101 -3.672969
v -0.410719 -2.631839 -3.741782
v -0.402180 -2.660096 -3.802931
v -0.393420 -2.683698 -3.856038
v -0.384494 -2.702501 -3.900778
v -0.375456 -2.716387 -3.936873
v -0.366361 2.921240 -3.964102
v -0.482273 2.020066 -2.209261
v -0.375456 2.912356 -3.936873
v -0.384494 2.898470 -3.900778
v -0.393420 2.879668 -3.856038
v -0.402180 2.856066 -3.802930
v -0.410719 2.827808 -3.741782
v -0.418984 2.795070 -3.672969
v -0.426925 2.758054 -3.596917
v -0.434493 2.716987 -3.514095
v -0.441640 2.672123 -3.425012
v -0.448323 2.623738 -3.330218
v -0.454501 2.572130 -3.230298
v -0.460136 2.517619 -3.125868
v -0.465192 2.460539 -3.017571
v -0.469639 2.401243 -2.906076
v -0.473450 2.340096 -2.792068
v -0.476600 2.277476 -2.676253
v -0.479070 2.213768 -2.559343
v -0.480846 2.149366 -2.442059
v -0.481916 2.084666 -2.325125
vn -0.9283 -0.0000 0.3717
vn 1.0000 -0.0000 -0.0000
vn -0.5728 0.8197 -0.0000
vn -1.0000 -0.0000 -0.0000
vn -0.9283 -0.0000 -0.3717
vn -0.6988 -0.7153 -0.0000
vn -0.8381 -0.5455 -0.0000
vn -0.9034 -0.4289 -0.0000
vn -0.9375 -0.3480 -0.0000
vn -0.9573 -0.2893 -0.0000
vn -0.9696 -0.2448 -0.0000
vn -0.9778 -0.2098 -0.0000
vn -0.9834 -0.1812 -0.0000
vn -0.9875 -0.1573 -0.0000
vn -0.9906 -0.1368 -0.0000
vn -0.9929 -0.1189 -0.0000
vn -0.9947 -0.1028 -0.0000
vn -0.9961 -0.0882 -0.0000
vn -0.9972 -0.0748 -0.0000
vn -0.9981 -0.0622 -0.0000
vn -0.9987 -0.0502 -0.0000
vn -0.9992 -0.0387 -0.0000
vn -0.9996 -0.0276 -0.0000
vn -0.9999 -0.0165 -0.0000
vn -1.0000 -0.0055 -0.0000
vn -0.9485 -0.0000 0.3168
vn -0.9701 -0.0000 0.2429
vn -0.9807 -0.0000 0.1957
vn -0.9867 -0.0000 0.1627
vn -0.9904 -0.0000 0.1383
vn -0.9929 -0.0000 0.1193
vn -0.9946 -0.0000 0.1038
vn -0.9959 -0.0000 0.0910
vn -0.9968 -0.0000 0.0800
vn -0.9975 -0.0000 0.0703
vn -0.9981 -0.0000 0.0617
vn -0.9985 -0.0000 0.0539
vn -0.9989 -0.0000 0.0466
vn -0.9992 -0.0000 0.0399
vn -0.9994 -0.0000 0.0334
vn -0.9996 -0.0000 0.0272
vn -0.9998 -0.0000 0.0211
vn -0.9999 -0.0000 0.0151
vn -1.0000 -0.0000 0.0091
vn -1.0000 -0.0000 0.0031
vn -0.6988 0.7153 -0.0000
vn -0.8381 0.5455 -0.0000
vn -0.9034 0.4289 -0.0000
vn -0.9375 0.3480 -0.0000
vn -0.9573 0.2893 -0.0000
vn -0.9696 0.2448 -0.0000
vn -0.9778 0.2098 -0.0000
vn -0.9834 0.1812 -0.0000
vn -0.9875 0.1573 -0.0000
vn -0.9906 0.1368 -0.0000
vn -0.9929 0.1189 -0.0000
vn -0.9947 0.1028 -0.0000
vn -0.9961 0.0882 -0.0000
vn -0.9972 0.0748 -0.0000
vn -0.9981 0.0622 -0.0000
vn -0.9987 0.0502 -0.0000
vn -0.9992 0.0387 -0.0000
vn -0.9996 0.0276 -0.0000
vn -0.9999 0.0165 -0.0000
vn -1.0000 0.0055 -0.0000
vn -0.9485 -0.0000 -0.3168
vn -0.9701 -0.0000 -0.2429
vn -0.9807 -0.0000 -0.1957
vn -0.9867 -0.0000 -0.1627
vn -0.9904 -0.0000 -0.1383
vn -0.9929 -0.0000 -0.1193
vn -0.9946 -0.0000 -0.1038
vn -0.9959 -0.0000 -0.0910
vn -0.9968 -0.0000 -0.0800
vn -0.9975 -0.0000 -0.0703
vn -0.9981 -0.0000 -0.0617
vn -0.9985 -0.0000 -0.0539
vn -0.9989 -0.0000 -0.0466
vn -0.9992 -0.0000 -0.0399
vn -0.9994 -0.0000 -0.0334
vn -0.9996 -0.0000 -0.0272
vn -0.9998 -0.0000 -0.0211
vn -0.9999 -0.0000 -0.0151
vn -1.0000 -0.0000 -0.0091
vn -1.0000 -0.0000 -0.0031
vn -0.5728 -0.8197 -0.0000
vt 0.375000 0.750000
vt 0.625000 0.750000
vt 0.625000 0.970459
vt 0.375000 0.970459
vt 0.375000 0.500000
vt 0.625000 0.500000
vt 0.845459 0.500000
vt 0.845459 0.750000
vt 0.412386 0.049848
vt 0.587614 0.049848
vt 0.587614 0.200152
vt 0.412386 0.200152
vt 0.375000 0.279541
vt 0.625000 0.279541
vt 0.154541 0.500000
vt 0.154541 0.750000
vt 0.152214 0.749875
vt 0.152214 0.500125
vt 0.149883 0.749499
vt 0.149883 0.500501
vt 0.147563 0.748871
vt 0.147563 0.501129
vt 0.145267 0.747989
vt 0.145267 0.502011
vt 0.143011 0.746853
vt 0.143011 0.503147
vt 0.140807 0.745457
vt 0.140807 0.504543
vt 0.138669 0.743792
vt 0.138669 0.506207
vt 0.136612 0.741844
vt 0.136612 0.508156
vt 0.134646 0.739585
vt 0.134646 0.510415
vt 0.125000 0.738284
vt 0.125000 0.511716
vt 0.375000 0.238284
vt 0.375000 0.011716
vt 0.387221 0.015115
vt 0.387221 0.234885
vt 0.389706 0.018667
vt 0.389706 0.231333
vt 0.392308 0.022351
vt 0.392308 0.227649
vt 0.395010 0.026144
vt 0.395011 0.223856
vt 0.397798 0.030022
vt 0.397798 0.219978
vt 0.400652 0.033962
vt 0.400652 0.216038
vt 0.403556 0.037939
vt 0.403556 0.212061
vt 0.406492 0.041928
vt 0.406492 0.208072
vt 0.409441 0.045906
vt 0.409441 0.204094
vt 0.624895 0.972795
vt 0.375105 0.972795
vt 0.624582 0.975151
vt 0.375418 0.975151
vt 0.624060 0.977514
vt 0.375940 0.977514
vt 0.623331 0.979869
vt 0.376669 0.979869
vt 0.622398 0.982202
vt 0.377602 0.982202
vt 0.621261 0.984497
vt 0.378739 0.984497
vt 0.619922 0.986742
vt 0.380078 0.986742
vt 0.618378 0.988921
vt 0.381622 0.988921
vt 0.616626 0.991022
vt 0.383374 0.991022
vt 0.615132 1.000000
vt 0.384869 1.000000
vt 0.384868 0.000000
vt 0.615131 0.000000
vt 0.612779 0.015115
vt 0.610294 0.018667
vt 0.607692 0.022351
vt 0.604990 0.026144
vt 0.602202 0.030022
vt 0.599348 0.033962
vt 0.596444 0.037939
vt 0.593508 0.041928
vt 0.590559 0.045906
vt 0.847786 0.500125
vt 0.847786 0.749875
vt 0.850117 0.500501
vt 0.850117 0.749499
vt 0.852437 0.501129
vt 0.852437 0.748871
vt 0.854733 0.502011
vt 0.854733 0.747990
vt 0.856989 0.503147
vt 0.856989 0.746853
vt 0.859193 0.504543
vt 0.859193 0.745457
vt 0.861331 0.506207
vt 0.861331 0.743793
vt 0.863388 0.508157
vt 0.863388 0.741844
vt 0.865354 0.510415
vt 0.865354 0.739585
vt 0.875000 0.511716
vt 0.875000 0.738284
vt 0.625000 0.011716
vt 0.625000 0.238284
vt 0.612779 0.234885
vt 0.610294 0.231333
vt 0.607692 0.227649
vt 0.604990 0.223856
vt 0.602202 0.219978
vt 0.599348 0.216038
vt 0.596444 0.212061
vt 0.593508 0.208072
vt 0.590559 0.204094
vt 0.375105 0.277205
vt 0.624896 0.277205
vt 0.375418 0.274849
vt 0.624582 0.274849
vt 0.375940 0.272486
vt 0.624060 0.272486
vt 0.376669 0.270131
vt 0.623331 0.270131
vt 0.377602 0.267798
vt 0.622398 0.267798
vt 0.378739 0.265503
vt 0.621261 0.265503
vt 0.380078 0.263258
vt 0.619922 0.263258
vt 0.381622 0.261079
vt 0.618378 0.261079
vt 0.383374 0.258978
vt 0.616626 0.258977
vt 0.384869 0.250000
vt 0.615131 0.250000
s 0
f 89/139/87 90/140/87 114/141/87 93/142/87
f 91/143/88 92/144/88 90/140/88 89/139/88
f 92/144/89 156/145/89 114/146/89 90/140/89
f 94/147/90 115/148/90 157/149/90 135/150/90
f 136/151/91 156/152/91 92/144/91 91/143/91
f 136/153/92 93/154/92 95/155/92 155/156/92
f 155/156/93 95/155/93 96/157/93 154/158/93
f 154/158/94 96/157/94 97/159/94 153/160/94
f 153/160/95 97/159/95 98/161/95 152/162/95
f 152/162/96 98/161/96 99/163/96 151/164/96
f 151/164/97 99/163/97 100/165/97 150/166/97
f 150/166/98 100/165/98 101/167/98 149/168/98
f 149/168/99 101/167/99 102/169/99 148/170/99
f 148/170/100 102/169/100 103/171/100 147/172/100
f 147/172/101 103/171/101 104/173/101 146/174/101
f 146/175/102 104/176/102 105/177/102 145/178/102
f 145/178/103 105/177/103 106/179/103 144/180/103
f 144/180/104 106/179/104 107/181/104 143/182/104
f 143/182/105 107/181/105 108/183/105 142/184/105
f 142/184/106 108/183/106 109/185/106 141/186/106
f 141/186/107 109/185/107 110/187/107 140/188/107
f 140/188/108 110/187/108 111/189/108 139/190/108
f 139/190/109 111/189/109 112/191/109 138/192/109
f 138/192/110 112/191/110 113/193/110 137/194/110
f 137/194/111 113/193/111 94/147/111 135/150/111
f 93/142/112 114/141/112 116/195/112 95/196/112
f 95/196/113 116/195/113 117/197/113 96/198/113
f 96/198/114 117/197/114 118/199/114 97/200/114
f 97/200/115 118/199/115 119/201/115 98/202/115
f 98/202/116 119/201/116 120/203/116 99/204/116
f 99/204/117 120/203/117 121/205/117 100/206/117
f 100/206/118 121/205/118 122/207/118 101/208/118
f 101/208/119 122/207/119 123/209/119 102/210/119
f 102/210/120 123/209/120 124/211/120 103/212/120
f 103/212/121 124/211/121 125/213/121 104/214/121
f 104/215/122 125/216/122 126/217/122 105/177/122
f 105/177/123 126/217/123 127/218/123 106/179/123
f 106/179/124 127/218/124 128/219/124 107/181/124
f 107/181/125 128/219/125 129/220/125 108/183/125
f 108/183/126 129/220/126 130/221/126 109/185/126
f 109/185/127 130/221/127 131/222/127 110/187/127
f 110/187/128 131/222/128 132/223/128 111/189/128
f 111/189/129 132/223/129 133/224/129 112/191/129
f 112/191/130 133/224/130 134/225/130 113/193/130
f 113/193/131 134/225/131 115/148/131 94/147/131
f 114/146/132 156/145/132 158/226/132 116/227/132
f 116/227/133 158/226/133 159/228/133 117/229/133
f 117/229/134 159/228/134 160/230/134 118/231/134
f 118/231/135 160/230/135 161/232/135 119/233/135
f 119/233/136 161/232/136 162/234/136 120/235/136
f 120/235/137 162/234/137 163/236/137 121/237/137
f 121/237/138 163/236/138 164/238/138 122/239/138
f 122/239/139 164/238/139 165/240/139 123/241/139
f 123/241/140 165/240/140 166/242/140 124/243/140
f 124/243/141 166/242/141 167/244/141 125/245/141
f 125/246/142 167/247/142 168/248/142 126/217/142
f 126/217/143 168/248/143 169/249/143 127/218/143
f 127/218/144 169/249/144 170/250/144 128/219/144
f 128/219/145 170/250/145 171/251/145 129/220/145
f 129/220/146 171/251/146 172/252/146 130/221/146
f 130/221/147 172/252/147 173/253/147 131/222/147
f 131/222/148 173/253/148 174/254/148 132/223/148
f 132/223/149 174/254/149 175/255/149 133/224/149
f 133/224/150 175/255/150 176/256/150 134/225/150
f 134/225/151 176/256/151 157/149/151 115/148/151
f 156/152/152 136/151/152 155/257/152 158/258/152
f 158/258/153 155/257/153 154/259/153 159/260/153
f 159/260/154 154/259/154 153/261/154 160/262/154
f 160/262/155 153/261/155 152/263/155 161/264/155
f 161/264/156 152/263/156 151/265/156 162/266/156
f 162/266/157 151/265/157 150/267/157 163/268/157
f 163/268/158 150/267/158 149/269/158 164/270/158
f 164/270/159 149/269/159 148/271/159 165/272/159
f 165/272/160 148/271/160 147/273/160 166/274/160
f 166/274/161 147/273/161 146/275/161 167/276/161
f 167/276/162 146/275/162 145/178/162 168/248/162
f 168/248/163 145/178/163 144/180/163 169/249/163
f 169/249/164 144/180/164 143/182/164 170/250/164
f 170/250/165 143/182/165 142/184/165 171/251/165
f 171/251/166 142/184/166 141/186/166 172/252/166
f 172/252/167 141/186/167 140/188/167 173/253/167
f 173/253/168 140/188/168 139/190/168 174/254/168
f 174/254/169 139/190/169 138/192/169 175/255/169
f 175/255/170 138/192/170 137/194/170 176/256/170
f 176/256/171 137/194/171 135/150/171 157/149/171
f 136/153/172 91/143/172 89/139/172 93/154/172
o Cube.002
v -2.164451 -0.531520 0.282985
v -2.164451 0.531520 0.282985
v -2.164451 -0.531520 -0.282985
v -2.164451 0.531520 -0.282985
v -0.164451 -0.531520 0.282985
v -0.164451 0.531520 0.282985
v -0.164451 -0.531520 -0.282985
v -0.164451 0.531520 -0.282985
vn -1.0000 -0.0000 -0.0000
vn -0.0000 -0.0000 -1.0000
vn 1.0000 -0.0000 -0.0000
vn -0.0000 -0.0000 1.0000
vn -0.0000 -1.0000 -0.0000
vn -0.0000 1.0000 -0.0000
vt 0.375000 0.000000
vt 0.625000 0.000000
vt 0.625000 0.250000
vt 0.375000 0.250000
vt 0.625000 0.500000
vt 0.375000 0.500000
vt 0.625000 0.750000
vt 0.375000 0.750000
vt 0.625000 1.000000
vt 0.375000 1.000000
vt 0.125000 0.500000
vt 0.125000 0.750000
vt 0.875000 0.500000
vt 0.875000 0.750000
s 0
f 177/277/173 178/278/173 180/279/173 179/280/173
f 179/280/174 180/279/174 184/281/174 183/282/174
f 183/282/175 184/281/175 182/283/175 181/284/175
f 181/284/176 182/283/176 178/285/176 177/286/176
f 179/287/177 183/282/177 181/284/177 177/288/177
f 184/281/178 180/289/178 178/290/178 182/283/178
