# Blender 4.3.1
# www.blender.org
mtllib wall open areas.mtl
o Cube-col
v -1.000000 10.358939 14.309278
v -1.000000 -10.358939 14.309278
v -1.000000 10.358939 -14.309278
v -1.000000 -10.358939 -14.309278
v 1.000000 10.358939 14.309278
v 1.000000 -10.358939 14.309278
v 1.000000 10.358939 -14.309278
v 1.000000 -10.358939 -14.309278
v -1.000000 5.348366 14.309278
v -1.000000 5.348366 -14.309278
v 1.000000 5.348366 -14.309278
v 1.000000 5.348366 14.309278
v -1.000000 8.726280 -14.309278
v 1.000000 8.726280 -14.309278
v 1.000000 8.726280 14.309278
v -1.000000 8.726280 14.309278
v -1.000000 10.358939 13.462574
v -1.000000 -10.358939 13.462574
v 1.000000 10.358939 13.462574
v 1.000000 -10.358939 13.462574
v 1.571903 5.842762 13.023798
v 1.571903 8.231883 13.023798
v -1.000000 -10.358939 -13.492458
v 1.000000 10.358939 -13.492458
v -1.000000 10.358939 -13.492458
v 1.000000 -10.358939 -13.492458
v 1.571903 5.842762 -13.014262
v 1.571903 8.231883 -13.014262
v -1.000000 10.358939 7.896389
v 1.000000 -10.358939 7.896389
v 1.571903 5.319961 8.351931
v 1.571903 8.754684 8.351931
v -1.000000 -10.358939 7.896389
v 1.000000 10.358939 7.896389
v -1.391118 5.319961 8.351931
v -1.391118 8.754684 8.351931
v -1.000000 -10.358939 -8.554400
v 1.000000 10.358939 -8.554400
v -1.391118 5.319961 -9.005127
v -1.391118 8.754684 -9.005127
v -1.000000 10.358939 -8.554400
v 1.000000 -10.358939 -8.554400
v 1.571903 5.319961 -9.005127
v 1.571903 8.754684 -9.005127
v -1.000000 10.358939 1.819207
v 1.000000 -10.358939 1.819207
v 1.571903 5.319961 1.939959
v 1.571903 8.754684 1.939959
v -1.000000 -10.358939 1.819207
v 1.000000 10.358939 1.819207
v -1.391118 5.319961 1.939959
v -1.391118 8.754684 1.939959
v -1.000000 -10.358939 -3.367597
v 1.000000 10.358939 -3.367597
v -1.391118 5.319961 -3.532584
v -1.391118 8.754684 -3.532584
v -1.000000 10.358939 -3.367597
v 1.000000 -10.358939 -3.367597
v 1.571903 5.319961 -3.532584
v 1.571903 8.754684 -3.532584
v 1.000000 5.348366 7.896389
v 1.000000 5.348366 13.462574
v 1.000000 8.726280 7.896389
v 1.000000 8.726280 13.462574
v -1.000000 5.348366 13.462574
v -1.000000 8.726280 13.462574
v -1.000000 5.348366 -8.554400
v -1.000000 5.348366 -13.492458
v -1.000000 8.726280 -8.554400
v -1.000000 8.726280 -13.492458
v 1.000000 5.348366 -13.492458
v 1.000000 8.726280 -13.492458
v 1.000000 5.348366 1.819207
v 1.000000 8.726280 1.819207
v -1.000000 5.348366 7.896389
v -1.000000 8.726280 7.896389
v -1.000000 5.348366 -3.367597
v -1.000000 8.726280 -3.367597
v 1.000000 5.348366 -8.554400
v 1.000000 8.726280 -8.554400
v 1.000000 5.348366 -3.367597
v 1.000000 8.726280 -3.367597
v -1.000000 5.348366 1.819207
v -1.000000 8.726280 1.819207
v 1.571903 5.842763 8.351931
v 1.571903 5.319961 13.575501
v 1.571903 8.231883 8.351931
v 1.571903 8.754684 13.575501
v -1.391118 5.319961 13.575501
v -1.391118 8.754684 13.575501
v -1.391118 5.842763 -9.005127
v -1.391118 5.319961 -13.565967
v -1.391118 8.231883 -9.005127
v -1.391118 8.754684 -13.565967
v 1.571903 5.319961 -13.565967
v 1.571903 8.754684 -13.565967
v 1.571903 5.842763 1.939959
v 1.571903 8.231883 1.939959
v -1.391118 5.842763 8.351931
v -1.391118 8.231883 8.351931
v -1.391118 5.842763 -3.532584
v -1.391118 8.231883 -3.532584
v 1.571903 5.842763 -9.005127
v 1.571903 8.231883 -9.005127
v 1.571903 5.842763 -3.532584
v 1.571903 8.231883 -3.532584
v -1.391118 5.842763 1.939959
v -1.391118 8.231883 1.939959
v -1.300203 8.231883 8.351931
v -1.300203 5.842763 1.939959
v -1.300203 5.842763 -9.005127
v -1.300203 8.231883 -9.005127
v -1.300203 5.842763 -3.532584
v -1.300203 5.842763 8.351931
v -1.300203 5.842762 13.023798
v -1.300203 8.231883 13.023798
v -1.300203 5.842762 -13.014262
v -1.300203 8.231883 -13.014262
v -1.300203 8.231883 1.939959
v -1.300203 8.231883 -3.532584
v -1.391118 5.842762 13.023798
v -1.391118 8.231883 13.023798
v -1.391118 5.842762 -13.014262
v -1.391118 8.231883 -13.014262
vn 1.0000 -0.0000 -0.0000
vn -0.0000 -0.0000 1.0000
vn -1.0000 -0.0000 -0.0000
vn -0.0000 -0.0000 -1.0000
vn -0.0000 -1.0000 -0.0000
vn -0.0000 1.0000 -0.0000
vn 0.0496 0.9988 -0.0000
vn 0.0496 -0.9988 -0.0000
vn -0.2774 -0.0000 -0.9608
vn 0.1937 -0.0000 -0.9811
vn -0.0724 0.9974 -0.0000
vn -0.0724 -0.9974 -0.0000
vn 0.1275 -0.0000 0.9918
vn -0.1847 -0.0000 0.9828
vt 0.435462 0.242865
vt 0.625000 0.242865
vt 0.625000 0.250000
vt 0.435462 0.250000
vt 0.625000 0.500000
vt 0.435462 0.500000
vt 0.435462 0.742604
vt 0.625000 0.742604
vt 0.625000 0.750000
vt 0.435462 0.750000
vt 0.625000 1.000000
vt 0.435462 1.000000
vt 0.125000 0.742604
vt 0.375000 0.742604
vt 0.375000 0.750000
vt 0.125000 0.750000
vt 0.875000 0.742604
vt 0.875000 0.750000
vt 0.394701 0.750000
vt 0.394701 1.000000
vt 0.394701 0.742604
vt 0.394701 0.250000
vt 0.394701 0.500000
vt 0.394701 0.242865
vt 0.375000 0.242865
vt 0.375000 0.250000
vt 0.375000 0.500000
vt 0.375000 1.000000
vt 0.375000 0.693980
vt 0.394701 0.693980
vt 0.375000 0.000000
vt 0.394701 0.000000
vt 0.394701 0.007396
vt 0.375000 0.007396
vt 0.435462 0.000000
vt 0.435462 0.007396
vt 0.425519 0.640892
vt 0.425519 0.693980
vt 0.625000 0.693980
vt 0.875000 0.693980
vt 0.125000 0.693980
vt 0.435462 0.693980
vt 0.625000 0.000000
vt 0.625000 0.007396
vt 0.625000 0.507135
vt 0.435462 0.507135
vt 0.125000 0.500000
vt 0.375000 0.507135
vt 0.125000 0.507135
vt 0.875000 0.500000
vt 0.875000 0.507135
vt 0.394701 0.507135
vt 0.375000 0.199728
vt 0.394701 0.199728
vt 0.435462 0.199728
vt 0.625000 0.199728
vt 0.625000 0.056020
vt 0.435462 0.056020
vt 0.394701 0.056020
vt 0.375000 0.056020
vt 0.435462 0.640892
vt 0.625000 0.640892
vt 0.125000 0.640892
vt 0.375000 0.640892
vt 0.875000 0.640892
vt 0.404644 0.732660
vt 0.404644 0.693980
vt 0.394701 0.640892
vt 0.394701 0.550272
vt 0.375000 0.550272
vt 0.425519 0.517079
vt 0.425519 0.550272
vt 0.875000 0.550272
vt 0.625000 0.550272
vt 0.125000 0.550272
vt 0.435462 0.550272
vt 0.435462 0.154418
vt 0.625000 0.154418
vt 0.375000 0.154418
vt 0.394701 0.154418
vt 0.394701 0.109108
vt 0.375000 0.109108
vt 0.625000 0.109108
vt 0.435462 0.109108
vt 0.375000 0.595582
vt 0.394701 0.595582
vt 0.425519 0.732660
vt 0.625000 0.595582
vt 0.875000 0.595582
vt 0.125000 0.595582
vt 0.435462 0.595582
vt 0.404644 0.640892
vt 0.404644 0.595582
vt 0.430086 0.737228
vt 0.430086 0.693980
vt 0.400077 0.693980
vt 0.400077 0.737228
vt 0.430086 0.012772
vt 0.400077 0.012772
vt 0.430086 0.237489
vt 0.430086 0.199728
vt 0.400077 0.199728
vt 0.400077 0.237489
vt 0.430086 0.512511
vt 0.400077 0.512511
vt 0.430086 0.640892
vt 0.400077 0.640892
vt 0.430086 0.056020
vt 0.400077 0.056020
vt 0.430086 0.154418
vt 0.400077 0.154418
vt 0.430086 0.550272
vt 0.400077 0.550272
vt 0.430086 0.595582
vt 0.400077 0.595582
vt 0.430086 0.109108
vt 0.400077 0.109108
vt 0.425519 0.017340
vt 0.404644 0.017340
vt 0.425519 0.232921
vt 0.425519 0.199728
vt 0.404644 0.199728
vt 0.404644 0.232921
vt 0.404644 0.517079
vt 0.425519 0.056020
vt 0.404644 0.056020
vt 0.425519 0.154418
vt 0.404644 0.154418
vt 0.404644 0.550272
vt 0.425519 0.595582
vt 0.425519 0.109108
vt 0.404644 0.109108
s 0
f 68/1/1 23/2/1 4/3/1 10/4/1
f 10/4/2 4/3/2 8/5/2 11/6/2
f 62/7/3 20/8/3 6/9/3 12/10/3
f 12/10/4 6/9/4 2/11/4 9/12/4
f 17/13/5 19/14/5 5/15/5 1/16/5
f 20/8/6 18/17/6 2/18/6 6/9/6
f 15/19/4 12/10/4 9/12/4 16/20/4
f 64/21/3 62/7/3 12/10/3 15/19/3
f 13/22/2 10/4/2 11/6/2 14/23/2
f 70/24/1 68/1/1 10/4/1 13/22/1
f 25/25/1 70/24/1 13/22/1 3/26/1
f 3/26/2 13/22/2 14/23/2 7/27/2
f 19/14/3 64/21/3 15/19/3 5/15/3
f 5/15/4 15/19/4 16/20/4 1/28/4
f 34/29/3 63/30/3 64/21/3 19/14/3
f 1/31/1 16/32/1 66/33/1 17/34/1
f 16/32/1 9/35/1 65/36/1 66/33/1
f 97/37/5 85/38/5 114/38/5 110/37/5
f 30/39/6 33/40/6 18/17/6 20/8/6
f 29/41/5 34/29/5 19/14/5 17/13/5
f 61/42/3 30/39/3 20/8/3 62/7/3
f 9/35/1 2/43/1 18/44/1 65/36/1
f 11/6/3 8/5/3 26/45/3 71/46/3
f 3/47/5 7/27/5 24/48/5 25/49/5
f 8/5/6 4/50/6 23/51/6 26/45/6
f 14/23/3 11/6/3 71/46/3 72/52/3
f 7/27/3 14/23/3 72/52/3 24/48/3
f 41/53/1 69/54/1 70/24/1 25/25/1
f 67/55/1 37/56/1 23/2/1 68/1/1
f 65/36/1 18/44/1 33/57/1 75/58/1
f 17/34/1 66/33/1 76/59/1 29/60/1
f 73/61/3 46/62/3 30/39/3 61/42/3
f 45/63/5 50/64/5 34/29/5 29/41/5
f 46/62/6 49/65/6 33/40/6 30/39/6
f 22/66/6 87/67/6 109/67/6 116/66/6
f 50/64/3 74/68/3 63/30/3 34/29/3
f 24/48/3 72/52/3 80/69/3 38/70/3
f 27/71/5 103/72/5 111/72/5 117/71/5
f 26/45/6 23/51/6 37/73/6 42/74/6
f 25/49/5 24/48/5 38/70/5 41/75/5
f 71/46/3 26/45/3 42/74/3 79/76/3
f 77/77/1 53/78/1 37/56/1 67/55/1
f 57/79/1 78/80/1 69/54/1 41/53/1
f 29/60/1 76/59/1 84/81/1 45/82/1
f 75/58/1 33/57/1 49/83/1 83/84/1
f 54/85/3 82/86/3 74/68/3 50/64/3
f 85/38/5 21/87/5 115/87/5 114/38/5
f 58/88/6 53/89/6 49/65/6 46/62/6
f 57/90/5 54/85/5 50/64/5 45/63/5
f 81/91/3 58/88/3 46/62/3 73/61/3
f 79/76/3 42/74/3 58/88/3 81/91/3
f 41/75/5 38/70/5 54/85/5 57/90/5
f 42/74/6 37/73/6 53/89/6 58/88/6
f 98/92/6 106/93/6 120/93/6 119/92/6
f 38/70/3 80/69/3 82/86/3 54/85/3
f 45/82/1 84/81/1 78/80/1 57/79/1
f 83/84/1 49/83/1 53/78/1 77/77/1
f 86/94/7 31/95/7 61/42/7 62/7/7
f 32/96/8 88/97/8 64/21/8 63/30/8
f 89/98/9 90/99/9 66/33/9 65/36/9
f 88/97/10 86/94/10 62/7/10 64/21/10
f 92/100/11 39/101/11 67/55/11 68/1/11
f 40/102/12 94/103/12 70/24/12 69/54/12
f 95/104/13 96/105/13 72/52/13 71/46/13
f 94/103/14 92/100/14 68/1/14 70/24/14
f 31/95/7 47/106/7 73/61/7 61/42/7
f 48/107/8 32/96/8 63/30/8 74/68/8
f 35/108/11 89/98/11 65/36/11 75/58/11
f 90/99/12 36/109/12 76/59/12 66/33/12
f 39/101/11 55/110/11 77/77/11 67/55/11
f 56/111/12 40/102/12 69/54/12 78/80/12
f 43/112/7 95/104/7 71/46/7 79/76/7
f 96/105/8 44/113/8 80/69/8 72/52/8
f 47/106/7 59/114/7 81/91/7 73/61/7
f 60/115/8 48/107/8 74/68/8 82/86/8
f 51/116/11 35/108/11 75/58/11 83/84/11
f 36/109/12 52/117/12 84/81/12 76/59/12
f 55/110/11 51/116/11 83/84/11 77/77/11
f 52/117/12 56/111/12 78/80/12 84/81/12
f 59/114/7 43/112/7 79/76/7 81/91/7
f 44/113/8 60/115/8 82/86/8 80/69/8
f 21/87/3 85/38/3 31/95/3 86/94/3
f 87/67/3 22/66/3 88/97/3 32/96/3
f 121/118/1 122/119/1 90/99/1 89/98/1
f 22/66/3 21/87/3 86/94/3 88/97/3
f 123/120/1 91/121/1 39/101/1 92/100/1
f 93/122/1 124/123/1 94/103/1 40/102/1
f 27/71/3 28/124/3 96/105/3 95/104/3
f 124/123/1 123/120/1 92/100/1 94/103/1
f 85/38/3 97/37/3 47/106/3 31/95/3
f 98/92/3 87/67/3 32/96/3 48/107/3
f 99/125/1 121/118/1 89/98/1 35/108/1
f 122/119/1 100/126/1 36/109/1 90/99/1
f 91/121/1 101/127/1 55/110/1 39/101/1
f 102/128/1 93/122/1 40/102/1 56/111/1
f 103/72/3 27/71/3 95/104/3 43/112/3
f 28/124/3 104/129/3 44/113/3 96/105/3
f 97/37/3 105/130/3 59/114/3 47/106/3
f 106/93/3 98/92/3 48/107/3 60/115/3
f 107/131/1 99/125/1 35/108/1 51/116/1
f 100/126/1 108/132/1 52/117/1 36/109/1
f 101/127/1 107/131/1 51/116/1 55/110/1
f 108/132/1 102/128/1 56/111/1 52/117/1
f 105/130/3 103/72/3 43/112/3 59/114/3
f 104/129/3 106/93/3 60/115/3 44/113/3
f 104/129/6 28/124/6 118/124/6 112/129/6
f 103/72/5 105/130/5 113/130/5 111/72/5
f 87/67/6 98/92/6 119/92/6 109/67/6
f 105/130/5 97/37/5 110/37/5 113/130/5
f 106/93/6 104/129/6 112/129/6 120/93/6
f 28/124/4 27/71/4 117/71/4 118/124/4
f 21/87/2 22/66/2 116/66/2 115/87/2
o Cube.001-col
v -1.100000 -10.300000 14.300000
v -1.100000 -5.700000 14.300000
v -1.100000 -10.300000 -14.300000
v -1.100000 -5.700000 -14.300000
v 1.100000 -10.300000 14.300000
v 1.100000 -5.700000 14.300000
v 1.100000 -10.300000 -14.300000
v 1.100000 -5.700000 -14.300000
vn -1.0000 -0.0000 -0.0000
vn -0.0000 -0.0000 -1.0000
vn 1.0000 -0.0000 -0.0000
vn -0.0000 -0.0000 1.0000
vn -0.0000 -1.0000 -0.0000
vn -0.0000 1.0000 -0.0000
vt 0.375000 0.000000
vt 0.625000 0.000000
vt 0.625000 0.250000
vt 0.375000 0.250000
vt 0.625000 0.500000
vt 0.375000 0.500000
vt 0.625000 0.750000
vt 0.375000 0.750000
vt 0.625000 1.000000
vt 0.375000 1.000000
vt 0.125000 0.500000
vt 0.125000 0.750000
vt 0.875000 0.500000
vt 0.875000 0.750000
s 0
f 125/133/15 126/134/15 128/135/15 127/136/15
f 127/136/16 128/135/16 132/137/16 131/138/16
f 131/138/17 132/137/17 130/139/17 129/140/17
f 129/140/18 130/139/18 126/141/18 125/142/18
f 127/143/19 131/138/19 129/140/19 125/144/19
f 132/137/20 128/145/20 126/146/20 130/139/20
