{
  "asset": {
    "generator": "Khronos glTF Blender I/O v4.2.57",
    "version": "2.0"
  },
  "scene": 0,
  "scenes": [
    {
      "name": "Scene",
      "nodes": [
        0
      ]
    }
  ],
  "nodes": [
    {
      "mesh": 0,
      "name": "namaqualand_boulder_06"
    }
  ],
  "materials": [
    {
      "doubleSided": true,
      "name": "namaqualand_boulder_06",
      "normalTexture": {
        "index": 0
      },
      "pbrMetallicRoughness": {
        "baseColorTexture": {
          "index": 1
        },
        "metallicFactor": 0,
        "metallicRoughnessTexture": {
          "index": 2
        }
      }
    }
  ],
  "meshes": [
    {
      "name": "mesh_boulder_01_5m",
      "primitives": [
        {
          "attributes": {
            "POSITION": 0,
            "NORMAL": 1,
            "TEXCOORD_0": 2
          },
          "indices": 3,
          "material": 0
        }
      ]
    }
  ],
  "textures": [
    {
      "sampler": 0,
      "source": 0
    },
    {
      "sampler": 0,
      "source": 1
    },
    {
      "sampler": 0,
      "source": 2
    }
  ],
  "images": [
    {
      "mimeType": "image/jpeg",
      "name": "namaqualand_boulder_06_nor_gl",
      "uri": "textures/namaqualand_boulder_06_nor_gl_1k.jpg"
    },
    {
      "mimeType": "image/jpeg",
      "name": "namaqualand_boulder_06_diff",
      "uri": "textures/namaqualand_boulder_06_diff_1k.jpg"
    },
    {
      "mimeType": "image/jpeg",
      "name": "namaqualand_boulder_06_rough",
      "uri": "textures/namaqualand_boulder_06_arm_1k.jpg"
    }
  ],
  "accessors": [
    {
      "bufferView": 0,
      "componentType": 5126,
      "count": 56521,
      "max": [
        0.3542558550834656,
        0.6331791281700134,
        0.551062285900116
      ],
      "min": [
        -0.32072713971138,
        -0.018452346324920654,
        -0.6608133912086487
      ],
      "type": "VEC3"
    },
    {
      "bufferView": 1,
      "componentType": 5126,
      "count": 56521,
      "type": "VEC3"
    },
    {
      "bufferView": 2,
      "componentType": 5126,
      "count": 56521,
      "type": "VEC2"
    },
    {
      "bufferView": 3,
      "componentType": 5123,
      "count": 327342,
      "type": "SCALAR"
    }
  ],
  "bufferViews": [
    {
      "buffer": 0,
      "byteLength": 678252,
      "byteOffset": 0,
      "target": 34962
    },
    {
      "buffer": 0,
      "byteLength": 678252,
      "byteOffset": 678252,
      "target": 34962
    },
    {
      "buffer": 0,
      "byteLength": 452168,
      "byteOffset": 1356504,
      "target": 34962
    },
    {
      "buffer": 0,
      "byteLength": 654684,
      "byteOffset": 1808672,
      "target": 34963
    }
  ],
  "samplers": [
    {
      "magFilter": 9729,
      "minFilter": 9987
    }
  ],
  "buffers": [
    {
      "byteLength": 2463356,
      "uri": "namaqualand_boulder_06.bin"
    }
  ]
}