{
  "asset": {
    "generator": "Khronos glTF Blender I/O v4.2.57",
    "version": "2.0"
  },
  "scene": 0,
  "scenes": [
    {
      "name": "Scene",
      "nodes": [
        0
      ]
    }
  ],
  "nodes": [
    {
      "mesh": 0,
      "name": "drone_rock_01"
    }
  ],
  "materials": [
    {
      "doubleSided": true,
      "name": "drone_rock_01",
      "normalTexture": {
        "index": 0
      },
      "pbrMetallicRoughness": {
        "baseColorTexture": {
          "index": 1
        },
        "metallicFactor": 0,
        "metallicRoughnessTexture": {
          "index": 2
        }
      }
    }
  ],
  "meshes": [
    {
      "name": "drone_rock_01_5m.001",
      "primitives": [
        {
          "attributes": {
            "POSITION": 0,
            "NORMAL": 1,
            "TEXCOORD_0": 2
          },
          "indices": 3,
          "material": 0
        }
      ]
    }
  ],
  "textures": [
    {
      "sampler": 0,
      "source": 0
    },
    {
      "sampler": 0,
      "source": 1
    },
    {
      "sampler": 0,
      "source": 2
    }
  ],
  "images": [
    {
      "mimeType": "image/jpeg",
      "name": "namaqualand_cliff_01_nor_gl",
      "uri": "textures/namaqualand_cliff_01_nor_gl_1k.jpg"
    },
    {
      "mimeType": "image/jpeg",
      "name": "namaqualand_cliff_01_diff",
      "uri": "textures/namaqualand_cliff_01_diff_1k.jpg"
    },
    {
      "mimeType": "image/jpeg",
      "name": "namaqualand_cliff_01_rough",
      "uri": "textures/namaqualand_cliff_01_arm_1k.jpg"
    }
  ],
  "accessors": [
    {
      "bufferView": 0,
      "componentType": 5126,
      "count": 50423,
      "max": [
        4.406957149505615,
        4.541877269744873,
        0.7795994281768799
      ],
      "min": [
        -3.872086524963379,
        -0.41918590664863586,
        -3.610534191131592
      ],
      "type": "VEC3"
    },
    {
      "bufferView": 1,
      "componentType": 5126,
      "count": 50423,
      "type": "VEC3"
    },
    {
      "bufferView": 2,
      "componentType": 5126,
      "count": 50423,
      "type": "VEC2"
    },
    {
      "bufferView": 3,
      "componentType": 5123,
      "count": 283107,
      "type": "SCALAR"
    }
  ],
  "bufferViews": [
    {
      "buffer": 0,
      "byteLength": 605076,
      "byteOffset": 0,
      "target": 34962
    },
    {
      "buffer": 0,
      "byteLength": 605076,
      "byteOffset": 605076,
      "target": 34962
    },
    {
      "buffer": 0,
      "byteLength": 403384,
      "byteOffset": 1210152,
      "target": 34962
    },
    {
      "buffer": 0,
      "byteLength": 566214,
      "byteOffset": 1613536,
      "target": 34963
    }
  ],
  "samplers": [
    {
      "magFilter": 9729,
      "minFilter": 9987
    }
  ],
  "buffers": [
    {
      "byteLength": 2179752,
      "uri": "namaqualand_cliff_01.bin"
    }
  ]
}